<?xml version="1.0" encoding="UTF-8"?>
<svg version="1.1" xmlns="http://www.w3.org/2000/svg" width="110" height="117">
<path d="M0 0 C0.76119141 0.00451172 1.52238281 0.00902344 2.30664062 0.01367188 C4.14196295 0.02521478 5.97724352 0.04313622 7.8125 0.0625 C6.64128821 6.27410539 4.91861832 11.86992925 2.3125 17.625 C1.7880127 18.78563965 1.7880127 18.78563965 1.25292969 19.96972656 C-6.81781095 37.33705342 -21.41797245 61.36677375 -39.1875 70.0625 C-43.35164827 70.73413682 -45.61838347 70.93552047 -49.30078125 68.88671875 C-53.29185312 65.97797145 -56.78387189 62.63630952 -60.1875 59.0625 C-60.74695313 58.546875 -61.30640625 58.03125 -61.8828125 57.5 C-68.57726732 51.21209101 -79.59300951 40.24520109 -80.5 30.8125 C-79.99740697 24.7813836 -76.86313927 21.52927819 -72.625 17.5 C-67.92277804 13.56123843 -62.89150216 11.23184125 -57.1875 9.0625 C-56.28 8.71445312 -55.3725 8.36640625 -54.4375 8.0078125 C-37.36276205 2.14972421 -18.00496208 -0.20992332 0 0 Z " fill="#C61416" transform="translate(98.1875,46.9375)"/>
<path d="M0 0 C2.74849566 2.5906873 3.21654369 4.65699099 3.36328125 8.30078125 C3.36195638 9.9714394 3.34449908 11.64214781 3.3125 13.3125 C3.31572266 14.14201172 3.31894531 14.97152344 3.32226562 15.82617188 C3.2781226 20.91064606 2.49940866 25.10033991 1 30 C0.37899918 30.00586624 -0.24200165 30.01173248 -0.88182068 30.01777649 C-7.48747853 30.082916 -14.09270166 30.167601 -20.69799805 30.26245117 C-23.14618103 30.29521722 -25.59443083 30.32339005 -28.04272461 30.34643555 C-63.06839069 29.95385535 -63.06839069 29.95385535 -96.20703125 39.6875 C-99 41 -99 41 -102 40 C-103.08148512 37.12111708 -103.9319345 34.40450465 -104.6875 31.4375 C-104.90591553 30.58647705 -105.12433105 29.7354541 -105.34936523 28.85864258 C-107.39874622 20.28379001 -109.51706213 9.92079681 -105.3515625 1.77734375 C-84.7215979 -22.58794666 -22.91528664 -18.21471502 0 0 Z M-59 7 C-61.34961853 10.64595978 -62.70589607 13.64697423 -62 18 C-60.81208079 19.73517041 -60.81208079 19.73517041 -59 21 C-56.77711614 21.29630026 -56.77711614 21.29630026 -54.4375 20.9375 C-53.65246094 20.86402344 -52.86742187 20.79054688 -52.05859375 20.71484375 C-49.81005397 20.17615916 -49.81005397 20.17615916 -48.72265625 17.94140625 C-48.48417969 17.30074219 -48.24570312 16.66007812 -48 16 C-49.65 16 -51.3 16 -53 16 C-53 16.66 -53 17.32 -53 18 C-53.99 17.67 -54.98 17.34 -56 17 C-55.67 14.69 -55.34 12.38 -55 10 C-52 10 -49 10 -46 10 C-46.56362302 7.95163118 -46.56362302 7.95163118 -48 6 C-52.23126589 4.68360617 -55.20340059 4.63995172 -59 7 Z M-95 6 C-95.50636607 7.74816858 -96.00484619 9.49862263 -96.5 11.25 C-96.7784375 12.22453125 -97.056875 13.1990625 -97.34375 14.203125 C-98.15228866 17.17023413 -98.15228866 17.17023413 -98 21 C-92.54168431 21.33418259 -88.76960932 20.75169768 -84 18 C-81.79049302 14.82383371 -80.92942867 13.05856994 -81.1875 9.1875 C-81.78190093 6.82457249 -81.78190093 6.82457249 -84 6 C-85.87379605 5.92966231 -87.75001102 5.9156978 -89.625 5.9375 C-91.12933594 5.95103516 -91.12933594 5.95103516 -92.6640625 5.96484375 C-93.82035156 5.98224609 -93.82035156 5.98224609 -95 6 Z M-77 6 C-78.97094808 10.92737019 -79.1799928 14.78020872 -79 20 C-75.89951072 21.55024464 -73.42105782 21.28992015 -70 21 C-66.99068842 19.84444986 -66.99068842 19.84444986 -65 17 C-63.99629725 13.36680516 -63.43213245 9.74084809 -63 6 C-64.65 6 -66.3 6 -68 6 C-68.99 9.96 -69.98 13.92 -71 18 C-71.99 18 -72.98 18 -74 18 C-73.34 14.04 -72.68 10.08 -72 6 C-73.65 6 -75.3 6 -77 6 Z M-44.75 15.1796875 C-46.13506612 17.79059146 -46.13506612 17.79059146 -46 20 C-44.68 20.33 -43.36 20.66 -42 21 C-41.67 20.34 -41.34 19.68 -41 19 C-37.9375 18.375 -37.9375 18.375 -35 18 C-35 18.99 -35 19.98 -35 21 C-33.35 21 -31.7 21 -30 21 C-30.33 16.05 -30.66 11.1 -31 6 C-39.39488127 4.23265658 -40.98851479 8.0765257 -44.75 15.1796875 Z M-27 6 C-27 6.99 -27 7.98 -27 9 C-26.01 9.33 -25.02 9.66 -24 10 C-24.66 13.63 -25.32 17.26 -26 21 C-24.35 21 -22.7 21 -21 21 C-19.57499941 17.00999834 -18.59924224 13.19469571 -18 9 C-16.68 9 -15.36 9 -14 9 C-14 8.01 -14 7.02 -14 6 C-18.29 6 -22.58 6 -27 6 Z M-11 6 C-11.53093324 7.93475671 -12.04942317 9.87293155 -12.5625 11.8125 C-12.85253906 12.89144531 -13.14257812 13.97039063 -13.44140625 15.08203125 C-14.25567738 18.04789759 -14.25567738 18.04789759 -13 21 C-11.68 21 -10.36 21 -9 21 C-8.49564306 19.0636296 -7.99666126 17.12585854 -7.5 15.1875 C-7.2215625 14.10855469 -6.943125 13.02960937 -6.65625 11.91796875 C-5.89029052 9.01066025 -5.89029052 9.01066025 -6 6 C-7.65 6 -9.3 6 -11 6 Z " fill="#BD1416" transform="translate(107,13)"/>
<path d="M0 0 C0.33 0.66 0.66 1.32 1 2 C2.32 2.33 3.64 2.66 5 3 C4.34 5.97 3.68 8.94 3 12 C2.67 11.01 2.34 10.02 2 9 C1.34 9 0.68 9 0 9 C-0.33 10.98 -0.66 12.96 -1 15 C-1.99 15 -2.98 15 -4 15 C-3.52396226 12.87429688 -3.04407402 10.74945573 -2.5625 8.625 C-2.29566406 7.44164062 -2.02882813 6.25828125 -1.75390625 5.0390625 C-1 2 -1 2 0 0 Z " fill="#A11113" transform="translate(79,20)"/>
<path d="M0 0 C1.98 0 3.96 0 6 0 C6 0.33 6 0.66 6 1 C4.35 1 2.7 1 1 1 C0.01 4.96 -0.98 8.92 -2 13 C-2.99 13 -3.98 13 -5 13 C-4.67 9.7 -4.34 6.4 -4 3 C-2.68 2.67 -1.36 2.34 0 2 C0 1.34 0 0.68 0 0 Z " fill="#8E0F10" transform="translate(38,18)"/>
<path d="M0 0 C1.32 0 2.64 0 4 0 C4.25 6.625 4.25 6.625 2 10 C1.01 10 0.02 10 -1 10 C-0.67 6.7 -0.34 3.4 0 0 Z " fill="#9B1214" transform="translate(16,21)"/>
<path d="M0 0 C1.32 0.33 2.64 0.66 4 1 C3.62705566 4.12501639 3.15929788 7.06418547 2 10 C-1.125 11.5625 -1.125 11.5625 -4 12 C-3.525625 10.948125 -3.05125 9.89625 -2.5625 8.8125 C-1.30676259 5.89824149 -0.47765619 3.15253086 0 0 Z " fill="#971113" transform="translate(43,21)"/>
<path d="M0 0 C0.66 0 1.32 0 2 0 C2 2.31 2 4.62 2 7 C0.35 7 -1.3 7 -3 7 C-2.01 4.69 -1.02 2.38 0 0 Z " fill="#851011" transform="translate(71,22)"/>
<path d="M0 0 C2.0625 0.4375 2.0625 0.4375 4 1 C1.03 3.475 1.03 3.475 -2 6 C-1.125 1.125 -1.125 1.125 0 0 Z " fill="#AE1214" transform="translate(4,12)"/>
<path d="M0 0 C1.65 0 3.3 0 5 0 C5.33 1.65 5.66 3.3 6 5 C5.01 5.495 5.01 5.495 4 6 C3.34 5.34 2.68 4.68 2 4 C2.66 3.01 3.32 2.02 4 1 C2.68 0.67 1.36 0.34 0 0 Z " fill="#8C1112" transform="translate(55,28)"/>
</svg>
